<?xml version="1.0" encoding="UTF-8"?>
<svg xmlns="http://www.w3.org/2000/svg" viewBox="0 0 32 32" role="img" aria-label="Sonagi"><path d="M16 4c0 0-2 2.6-2 4.2 0 1.1.9 2 2 2s2-.9 2-2C18 6.6 16 4 16 4z" fill="#f5c4aa"/><path d="M21.4 15.2c0-1.6-.9-2.8-2.4-3.5-1.1-.5-2.3-.7-3.4-.7-1.6 0-3 .4-4 1.2-1 .8-1.5 1.9-1.5 3.2 0 1.1.4 2 1.1 2.7.7.7 1.8 1.2 3.2 1.6l1.6.4c.9.2 1.6.5 2 .9.4.3.6.8.6 1.4 0 .7-.3 1.3-.9 1.7-.6.4-1.4.6-2.4.6-1 0-1.9-.2-2.6-.7-.7-.5-1.1-1.2-1.2-2.1l-2 .3c.1 1.4.7 2.5 1.8 3.3 1.1.8 2.5 1.2 4.2 1.2 1.7 0 3.1-.4 4.1-1.2 1-.8 1.5-1.9 1.5-3.2 0-1.1-.4-2-1.2-2.7-.8-.7-1.9-1.2-3.4-1.6l-1.4-.4c-.8-.2-1.4-.5-1.8-.8-.4-.3-.6-.8-.6-1.3 0-.7.3-1.2.8-1.6.5-.4 1.3-.6 2.2-.6.9 0 1.7.2 2.3.6.6.4.9 1 1.1 1.7l1.9-.4z" fill="#1a2744"/></svg>
